<svg xmlns="http://www.w3.org/2000/svg" xmlns:xlink="http://www.w3.org/1999/xlink" width="500" zoomAndPan="magnify" viewBox="0 0 375 374.999991" height="500" preserveAspectRatio="xMidYMid meet" version="1.2"><defs><clipPath id="dc8b015bf3"><path d="M 7.132812 142 L 87 142 L 87 222 L 7.132812 222 Z M 7.132812 142 "/></clipPath></defs><g id="2ed881ecf3"><rect x="0" width="375" y="0" height="374.999991" style="fill:#ffffff;fill-opacity:1;stroke:none;"/><rect x="0" width="375" y="0" height="374.999991" style="fill:#b71c1c;fill-opacity:1;stroke:none;"/><g clip-rule="nonzero" clip-path="url(#dc8b015bf3)"><path style=" stroke:none;fill-rule:nonzero;fill:#ffcf0d;fill-opacity:1;" d="M 85.421875 189.945312 L 85.390625 189.9375 C 81.902344 188.121094 79.632812 184.546875 79.460938 180.613281 C 79.292969 176.625 81.296875 172.84375 84.6875 170.734375 C 85.714844 170.101562 86.160156 168.855469 85.761719 167.769531 C 85.015625 165.679688 84.078125 163.621094 82.964844 161.644531 C 82.382812 160.613281 81.125 160.140625 79.972656 160.523438 C 76.167969 161.777344 71.976562 160.875 69.027344 158.167969 C 66.054688 155.433594 64.800781 151.300781 65.753906 147.375 C 66.054688 146.195312 65.480469 144.96875 64.410156 144.457031 C 62.539062 143.59375 60.582031 142.867188 58.605469 142.292969 C 57.234375 141.890625 55.753906 142.535156 55.0625 143.820312 C 53.234375 147.261719 49.671875 149.507812 45.777344 149.679688 C 41.867188 149.847656 38.117188 147.902344 36 144.625 C 35.214844 143.40625 33.683594 142.894531 32.363281 143.414062 C 30.441406 144.152344 28.546875 145.046875 26.730469 146.085938 C 25.71875 146.679688 25.257812 147.933594 25.652344 149.074219 C 26.945312 152.910156 26.054688 157.140625 23.328125 160.121094 C 20.625 163.070312 16.523438 164.328125 12.617188 163.402344 C 11.433594 163.121094 10.222656 163.699219 9.734375 164.769531 C 8.820312 166.789062 8.058594 168.914062 7.480469 171.089844 C 7.167969 172.21875 7.722656 173.429688 8.796875 173.984375 C 12.359375 175.785156 14.675781 179.386719 14.84375 183.378906 C 15.015625 187.3125 13.046875 191.074219 9.714844 193.183594 C 8.71875 193.824219 8.28125 195.078125 8.691406 196.160156 C 9.480469 198.269531 10.457031 200.339844 11.597656 202.304688 C 12.183594 203.304688 13.382812 203.757812 14.507812 203.402344 C 15.972656 202.949219 17.488281 202.8125 18.96875 202.972656 C 21.292969 203.21875 23.519531 204.195312 25.289062 205.816406 C 28.171875 208.464844 29.429688 212.339844 28.636719 216.1875 C 28.394531 217.378906 29.015625 218.601562 30.105469 219.09375 C 31.304688 219.644531 32.535156 220.128906 33.761719 220.558594 L 34.253906 220.730469 C 35 221 35.761719 221.273438 36.558594 221.355469 C 36.964844 221.398438 37.339844 221.390625 37.695312 221.316406 C 38.675781 221.144531 38.996094 220.589844 39.324219 220.003906 L 39.460938 219.761719 C 41.34375 216.550781 44.824219 214.453125 48.535156 214.296875 C 48.984375 214.277344 49.386719 214.285156 49.769531 214.3125 C 51.667969 214.441406 53.503906 215.0625 55.078125 216.101562 C 55.851562 216.605469 56.5625 217.214844 57.179688 217.902344 C 57.378906 218.113281 57.539062 218.339844 57.722656 218.578125 C 58.125 219.128906 58.554688 219.710938 59.148438 220.078125 C 60.351562 220.828125 61.925781 220.101562 62.984375 219.628906 L 63.367188 219.457031 C 63.859375 219.246094 64.34375 219.027344 64.820312 218.800781 C 65.597656 218.425781 65.816406 217.410156 65.257812 216.742188 L 56.042969 205.710938 C 55.703125 205.300781 55.148438 205.128906 54.636719 205.292969 C 52.773438 205.886719 50.8125 206.265625 48.777344 206.402344 C 36.046875 207.261719 23.984375 197.261719 22.527344 184.585938 C 20.847656 169.953125 32.144531 157.167969 46.816406 156.980469 C 59.675781 156.820312 70.652344 166.777344 71.75 179.585938 C 71.992188 182.402344 71.757812 185.144531 71.109375 187.734375 C 70.976562 188.253906 71.160156 188.800781 71.589844 189.117188 L 83.15625 197.753906 C 83.855469 198.273438 84.859375 197.996094 85.1875 197.191406 C 85.769531 195.765625 86.265625 194.304688 86.679688 192.832031 C 87 191.695312 86.484375 190.519531 85.421875 189.945312 "/></g><path style=" stroke:none;fill-rule:nonzero;fill:#ffcf0d;fill-opacity:1;" d="M 92.152344 224.148438 C 90.535156 225.832031 87.855469 225.878906 86.171875 224.25 C 84.488281 222.632812 84.4375 219.953125 86.058594 218.273438 C 87.6875 216.585938 90.359375 216.539062 92.042969 218.164062 C 93.726562 219.785156 93.777344 222.460938 92.152344 224.148438 Z M 60.855469 166.660156 C 56.082031 162.058594 49.605469 160.328125 43.542969 161.417969 C 42.328125 161.640625 41.878906 163.160156 42.773438 164.015625 L 52.15625 173.070312 C 53.617188 174.472656 53.660156 176.796875 52.25 178.253906 L 44.589844 186.203125 C 43.179688 187.65625 40.859375 187.703125 39.402344 186.296875 L 30.019531 177.246094 C 29.125 176.382812 27.625 176.894531 27.449219 178.121094 C 26.574219 184.25 28.570312 190.691406 33.394531 195.296875 C 39.417969 201.046875 48.253906 202.242188 55.449219 198.921875 L 80.058594 227.628906 C 84.214844 232.761719 91.921875 233.097656 96.503906 228.347656 C 100.765625 223.917969 100.539062 216.957031 96.234375 212.816406 C 95.917969 212.503906 95.5625 212.207031 95.195312 211.925781 L 65.367188 188.648438 C 68.460938 181.3125 66.933594 172.515625 60.855469 166.660156 "/><g style="fill:#ffcf0d;fill-opacity:1;"><g transform="translate(97.112061, 192.778089)"><path style="stroke:none" d="M 2.578125 0 L 2.578125 -26.609375 L 9.53125 -26.609375 L 9.53125 -15.75 L 20.265625 -15.75 L 20.265625 -26.609375 L 27.21875 -26.609375 L 27.21875 0 L 20.265625 0 L 20.265625 -10.203125 L 9.53125 -10.203125 L 9.53125 0 Z M 2.578125 0 "/></g></g><g style="fill:#ffcf0d;fill-opacity:1;"><g transform="translate(126.902267, 192.778089)"><path style="stroke:none" d="M 2.578125 0 L 2.578125 -26.609375 L 23.5625 -26.609375 L 23.5625 -21.0625 L 9.53125 -21.0625 L 9.53125 -16.09375 L 22.203125 -16.09375 L 22.203125 -10.59375 L 9.53125 -10.546875 L 9.53125 -5.546875 L 23.953125 -5.546875 L 23.953125 0 Z M 2.578125 0 "/></g></g><g style="fill:#ffcf0d;fill-opacity:1;"><g transform="translate(152.518044, 192.778089)"><path style="stroke:none" d="M 14.265625 -26.609375 C 17.660156 -26.609375 20.289062 -25.789062 22.15625 -24.15625 C 24.03125 -22.519531 24.96875 -20.222656 24.96875 -17.265625 C 24.96875 -14.128906 24.03125 -11.691406 22.15625 -9.953125 C 20.289062 -8.222656 17.660156 -7.359375 14.265625 -7.359375 L 9.53125 -7.359375 L 9.53125 0 L 2.578125 0 L 2.578125 -26.609375 Z M 13.921875 -12.90625 C 15.335938 -12.90625 16.429688 -13.257812 17.203125 -13.96875 C 17.984375 -14.675781 18.375 -15.703125 18.375 -17.046875 C 18.375 -18.335938 17.984375 -19.328125 17.203125 -20.015625 C 16.429688 -20.710938 15.335938 -21.0625 13.921875 -21.0625 L 9.53125 -21.0625 L 9.53125 -12.90625 Z M 13.921875 -12.90625 "/></g></g><g style="fill:#ffcf0d;fill-opacity:1;"><g transform="translate(178.323576, 192.778089)"><path style="stroke:none" d="M 2.578125 0 L 2.578125 -26.609375 L 9.53125 -26.609375 L 9.53125 -15.75 L 20.265625 -15.75 L 20.265625 -26.609375 L 27.21875 -26.609375 L 27.21875 0 L 20.265625 0 L 20.265625 -10.203125 L 9.53125 -10.203125 L 9.53125 0 Z M 2.578125 0 "/></g></g><g style="fill:#ffcf0d;fill-opacity:1;"><g transform="translate(208.113782, 192.778089)"><path style="stroke:none" d="M 29.53125 0 L 22.125 0 L 20.3125 -4.703125 L 8.8125 -4.703125 L 6.953125 0 L -0.1875 0 L 11.234375 -26.609375 L 18.375 -26.609375 Z M 14.609375 -19.515625 L 10.890625 -10.015625 L 18.25 -10.015625 Z M 14.609375 -19.515625 "/></g></g><g style="fill:#ffcf0d;fill-opacity:1;"><g transform="translate(237.44859, 192.778089)"><path style="stroke:none" d="M 2.578125 0 L 2.578125 -26.609375 L 23.5625 -26.609375 L 23.5625 -21.0625 L 9.53125 -21.0625 L 9.53125 -16.09375 L 22.203125 -16.09375 L 22.203125 -10.59375 L 9.53125 -10.546875 L 9.53125 -5.546875 L 23.953125 -5.546875 L 23.953125 0 Z M 2.578125 0 "/></g></g><g style="fill:#ffcf0d;fill-opacity:1;"><g transform="translate(263.064368, 192.778089)"><path style="stroke:none" d="M 20.90625 -18.59375 C 19.488281 -19.425781 17.976562 -20.109375 16.375 -20.640625 C 14.769531 -21.171875 13.421875 -21.4375 12.328125 -21.4375 C 11.472656 -21.4375 10.796875 -21.28125 10.296875 -20.96875 C 9.804688 -20.65625 9.5625 -20.191406 9.5625 -19.578125 C 9.5625 -18.992188 9.773438 -18.503906 10.203125 -18.109375 C 10.640625 -17.722656 11.171875 -17.410156 11.796875 -17.171875 C 12.429688 -16.929688 13.367188 -16.625 14.609375 -16.25 C 16.453125 -15.71875 17.972656 -15.1875 19.171875 -14.65625 C 20.378906 -14.125 21.410156 -13.304688 22.265625 -12.203125 C 23.128906 -11.097656 23.5625 -9.660156 23.5625 -7.890625 C 23.5625 -6.117188 23.09375 -4.609375 22.15625 -3.359375 C 21.226562 -2.109375 19.945312 -1.164062 18.3125 -0.53125 C 16.675781 0.101562 14.859375 0.421875 12.859375 0.421875 C 10.660156 0.421875 8.46875 0.0351562 6.28125 -0.734375 C 4.09375 -1.503906 2.203125 -2.5625 0.609375 -3.90625 L 3.296875 -9.34375 C 4.640625 -8.144531 6.226562 -7.164062 8.0625 -6.40625 C 9.894531 -5.65625 11.519531 -5.28125 12.9375 -5.28125 C 13.976562 -5.28125 14.796875 -5.46875 15.390625 -5.84375 C 15.984375 -6.226562 16.28125 -6.785156 16.28125 -7.515625 C 16.28125 -8.117188 16.054688 -8.625 15.609375 -9.03125 C 15.171875 -9.4375 14.613281 -9.757812 13.9375 -10 C 13.269531 -10.238281 12.332031 -10.523438 11.125 -10.859375 C 9.300781 -11.359375 7.789062 -11.867188 6.59375 -12.390625 C 5.40625 -12.910156 4.390625 -13.691406 3.546875 -14.734375 C 2.703125 -15.785156 2.28125 -17.1875 2.28125 -18.9375 C 2.28125 -20.582031 2.710938 -22.023438 3.578125 -23.265625 C 4.453125 -24.503906 5.691406 -25.457031 7.296875 -26.125 C 8.910156 -26.800781 10.78125 -27.140625 12.90625 -27.140625 C 14.820312 -27.140625 16.71875 -26.863281 18.59375 -26.3125 C 20.46875 -25.769531 22.113281 -25.046875 23.53125 -24.140625 Z M 20.90625 -18.59375 "/></g></g><g style="fill:#ffcf0d;fill-opacity:1;"><g transform="translate(287.579624, 192.778089)"><path style="stroke:none" d="M 0.265625 -20.875 L 0.265625 -26.609375 L 23.078125 -26.609375 L 23.078125 -20.875 L 15.109375 -20.875 L 15.109375 0 L 8.15625 0 L 8.15625 -20.875 Z M 0.265625 -20.875 "/></g></g><g style="fill:#ffcf0d;fill-opacity:1;"><g transform="translate(310.880495, 192.778089)"><path style="stroke:none" d="M 9.078125 -10.96875 C 9.078125 -9.300781 9.566406 -7.957031 10.546875 -6.9375 C 11.535156 -5.925781 12.789062 -5.421875 14.3125 -5.421875 C 15.800781 -5.421875 17.003906 -5.921875 17.921875 -6.921875 C 18.847656 -7.921875 19.3125 -9.269531 19.3125 -10.96875 L 19.3125 -26.609375 L 26.265625 -26.609375 L 26.265625 -10.96875 C 26.265625 -8.664062 25.773438 -6.644531 24.796875 -4.90625 C 23.828125 -3.175781 22.4375 -1.84375 20.625 -0.90625 C 18.8125 0.03125 16.691406 0.5 14.265625 0.5 C 11.835938 0.5 9.707031 0.03125 7.875 -0.90625 C 6.039062 -1.84375 4.625 -3.175781 3.625 -4.90625 C 2.625 -6.644531 2.125 -8.664062 2.125 -10.96875 L 2.125 -26.609375 L 9.078125 -26.609375 Z M 9.078125 -10.96875 "/></g></g><g style="fill:#ffcf0d;fill-opacity:1;"><g transform="translate(339.304536, 192.778089)"><path style="stroke:none" d="M 20.90625 -18.59375 C 19.488281 -19.425781 17.976562 -20.109375 16.375 -20.640625 C 14.769531 -21.171875 13.421875 -21.4375 12.328125 -21.4375 C 11.472656 -21.4375 10.796875 -21.28125 10.296875 -20.96875 C 9.804688 -20.65625 9.5625 -20.191406 9.5625 -19.578125 C 9.5625 -18.992188 9.773438 -18.503906 10.203125 -18.109375 C 10.640625 -17.722656 11.171875 -17.410156 11.796875 -17.171875 C 12.429688 -16.929688 13.367188 -16.625 14.609375 -16.25 C 16.453125 -15.71875 17.972656 -15.1875 19.171875 -14.65625 C 20.378906 -14.125 21.410156 -13.304688 22.265625 -12.203125 C 23.128906 -11.097656 23.5625 -9.660156 23.5625 -7.890625 C 23.5625 -6.117188 23.09375 -4.609375 22.15625 -3.359375 C 21.226562 -2.109375 19.945312 -1.164062 18.3125 -0.53125 C 16.675781 0.101562 14.859375 0.421875 12.859375 0.421875 C 10.660156 0.421875 8.46875 0.0351562 6.28125 -0.734375 C 4.09375 -1.503906 2.203125 -2.5625 0.609375 -3.90625 L 3.296875 -9.34375 C 4.640625 -8.144531 6.226562 -7.164062 8.0625 -6.40625 C 9.894531 -5.65625 11.519531 -5.28125 12.9375 -5.28125 C 13.976562 -5.28125 14.796875 -5.46875 15.390625 -5.84375 C 15.984375 -6.226562 16.28125 -6.785156 16.28125 -7.515625 C 16.28125 -8.117188 16.054688 -8.625 15.609375 -9.03125 C 15.171875 -9.4375 14.613281 -9.757812 13.9375 -10 C 13.269531 -10.238281 12.332031 -10.523438 11.125 -10.859375 C 9.300781 -11.359375 7.789062 -11.867188 6.59375 -12.390625 C 5.40625 -12.910156 4.390625 -13.691406 3.546875 -14.734375 C 2.703125 -15.785156 2.28125 -17.1875 2.28125 -18.9375 C 2.28125 -20.582031 2.710938 -22.023438 3.578125 -23.265625 C 4.453125 -24.503906 5.691406 -25.457031 7.296875 -26.125 C 8.910156 -26.800781 10.78125 -27.140625 12.90625 -27.140625 C 14.820312 -27.140625 16.71875 -26.863281 18.59375 -26.3125 C 20.46875 -25.769531 22.113281 -25.046875 23.53125 -24.140625 Z M 20.90625 -18.59375 "/></g></g><g style="fill:#ffcf0d;fill-opacity:1;"><g transform="translate(156.150634, 208.259505)"><path style="stroke:none" d="M 5.265625 -9.21875 C 6.160156 -9.21875 6.976562 -9.007812 7.71875 -8.59375 C 8.457031 -8.1875 9.035156 -7.628906 9.453125 -6.921875 C 9.878906 -6.210938 10.09375 -5.425781 10.09375 -4.5625 C 10.09375 -3.695312 9.878906 -2.90625 9.453125 -2.1875 C 9.035156 -1.476562 8.457031 -0.914062 7.71875 -0.5 C 6.976562 -0.09375 6.160156 0.109375 5.265625 0.109375 C 4.378906 0.109375 3.566406 -0.09375 2.828125 -0.5 C 2.085938 -0.914062 1.503906 -1.476562 1.078125 -2.1875 C 0.648438 -2.90625 0.4375 -3.695312 0.4375 -4.5625 C 0.4375 -5.425781 0.648438 -6.210938 1.078125 -6.921875 C 1.503906 -7.628906 2.085938 -8.1875 2.828125 -8.59375 C 3.566406 -9.007812 4.378906 -9.21875 5.265625 -9.21875 Z M 5.28125 -7.828125 C 4.695312 -7.828125 4.148438 -7.679688 3.640625 -7.390625 C 3.140625 -7.097656 2.738281 -6.703125 2.4375 -6.203125 C 2.144531 -5.710938 2 -5.164062 2 -4.5625 C 2 -3.96875 2.148438 -3.414062 2.453125 -2.90625 C 2.753906 -2.40625 3.15625 -2.007812 3.65625 -1.71875 C 4.15625 -1.425781 4.695312 -1.28125 5.28125 -1.28125 C 5.875 -1.28125 6.414062 -1.425781 6.90625 -1.71875 C 7.40625 -2.007812 7.800781 -2.40625 8.09375 -2.90625 C 8.382812 -3.414062 8.53125 -3.96875 8.53125 -4.5625 C 8.53125 -5.164062 8.382812 -5.710938 8.09375 -6.203125 C 7.800781 -6.703125 7.40625 -7.097656 6.90625 -7.390625 C 6.414062 -7.679688 5.875 -7.828125 5.28125 -7.828125 Z M 5.28125 -7.828125 "/></g></g><g style="fill:#ffcf0d;fill-opacity:1;"><g transform="translate(169.145615, 208.259505)"><path style="stroke:none" d="M 3.8125 -8.421875 C 3.539062 -8.421875 3.316406 -8.34375 3.140625 -8.1875 C 2.960938 -8.03125 2.875 -7.796875 2.875 -7.484375 L 2.875 -6.65625 L 4.6875 -6.65625 L 4.6875 -5.546875 L 2.875 -5.546875 L 2.875 0 L 1.390625 0 L 1.390625 -5.546875 L 0.484375 -5.546875 L 0.484375 -6.65625 L 1.390625 -6.65625 L 1.390625 -7.34375 C 1.390625 -7.851562 1.5 -8.285156 1.71875 -8.640625 C 1.945312 -9.003906 2.242188 -9.273438 2.609375 -9.453125 C 2.972656 -9.628906 3.363281 -9.71875 3.78125 -9.71875 C 4.195312 -9.71875 4.601562 -9.617188 5 -9.421875 L 4.6875 -8.203125 C 4.34375 -8.347656 4.050781 -8.421875 3.8125 -8.421875 Z M 3.8125 -8.421875 "/></g></g><g style="fill:#ffcf0d;fill-opacity:1;"><g transform="translate(176.223047, 208.259505)"><path style="stroke:none" d="M 1.109375 0 L 1.109375 -6.921875 L 2.59375 -6.921875 L 2.59375 0 Z M 1.859375 -9.8125 C 2.109375 -9.8125 2.3125 -9.726562 2.46875 -9.5625 C 2.632812 -9.394531 2.71875 -9.175781 2.71875 -8.90625 C 2.71875 -8.644531 2.632812 -8.425781 2.46875 -8.25 C 2.3125 -8.070312 2.109375 -7.984375 1.859375 -7.984375 C 1.597656 -7.984375 1.382812 -8.070312 1.21875 -8.25 C 1.0625 -8.425781 0.984375 -8.644531 0.984375 -8.90625 C 0.984375 -9.175781 1.0625 -9.394531 1.21875 -9.5625 C 1.382812 -9.726562 1.597656 -9.8125 1.859375 -9.8125 Z M 1.859375 -9.8125 "/></g></g><g style="fill:#ffcf0d;fill-opacity:1;"><g transform="translate(182.377081, 208.259505)"><path style="stroke:none" d="M 5.984375 -4.875 C 5.484375 -5.394531 4.84375 -5.65625 4.0625 -5.65625 C 3.445312 -5.65625 2.941406 -5.453125 2.546875 -5.046875 C 2.148438 -4.640625 1.953125 -4.109375 1.953125 -3.453125 C 1.953125 -2.796875 2.144531 -2.257812 2.53125 -1.84375 C 2.914062 -1.4375 3.410156 -1.234375 4.015625 -1.234375 C 4.898438 -1.234375 5.578125 -1.507812 6.046875 -2.0625 L 6.890625 -1.234375 C 6.578125 -0.816406 6.171875 -0.5 5.671875 -0.28125 C 5.171875 -0.0625 4.59375 0.046875 3.9375 0.046875 C 3.257812 0.046875 2.65625 -0.0976562 2.125 -0.390625 C 1.601562 -0.679688 1.191406 -1.09375 0.890625 -1.625 C 0.597656 -2.15625 0.453125 -2.765625 0.453125 -3.453125 C 0.453125 -4.140625 0.597656 -4.75 0.890625 -5.28125 C 1.191406 -5.820312 1.601562 -6.238281 2.125 -6.53125 C 2.65625 -6.820312 3.257812 -6.96875 3.9375 -6.96875 C 4.5625 -6.96875 5.113281 -6.867188 5.59375 -6.671875 C 6.082031 -6.484375 6.488281 -6.207031 6.8125 -5.84375 Z M 5.984375 -4.875 "/></g></g><g style="fill:#ffcf0d;fill-opacity:1;"><g transform="translate(192.172679, 208.259505)"><path style="stroke:none" d="M 1.109375 0 L 1.109375 -6.921875 L 2.59375 -6.921875 L 2.59375 0 Z M 1.859375 -9.8125 C 2.109375 -9.8125 2.3125 -9.726562 2.46875 -9.5625 C 2.632812 -9.394531 2.71875 -9.175781 2.71875 -8.90625 C 2.71875 -8.644531 2.632812 -8.425781 2.46875 -8.25 C 2.3125 -8.070312 2.109375 -7.984375 1.859375 -7.984375 C 1.597656 -7.984375 1.382812 -8.070312 1.21875 -8.25 C 1.0625 -8.425781 0.984375 -8.644531 0.984375 -8.90625 C 0.984375 -9.175781 1.0625 -9.394531 1.21875 -9.5625 C 1.382812 -9.726562 1.597656 -9.8125 1.859375 -9.8125 Z M 1.859375 -9.8125 "/></g></g><g style="fill:#ffcf0d;fill-opacity:1;"><g transform="translate(198.326714, 208.259505)"><path style="stroke:none" d="M 5.15625 -6.96875 C 5.957031 -6.96875 6.585938 -6.734375 7.046875 -6.265625 C 7.503906 -5.796875 7.734375 -5.144531 7.734375 -4.3125 L 7.734375 0 L 6.234375 0 L 6.234375 -3.890625 C 6.234375 -4.410156 6.082031 -4.820312 5.78125 -5.125 C 5.488281 -5.425781 5.082031 -5.578125 4.5625 -5.578125 C 4.007812 -5.566406 3.554688 -5.382812 3.203125 -5.03125 C 2.859375 -4.6875 2.660156 -4.238281 2.609375 -3.6875 L 2.609375 0 L 1.109375 0 L 1.109375 -6.921875 L 2.609375 -6.921875 L 2.609375 -5.59375 C 3.078125 -6.507812 3.925781 -6.96875 5.15625 -6.96875 Z M 5.15625 -6.96875 "/></g></g><g style="fill:#ffcf0d;fill-opacity:1;"><g transform="translate(209.409867, 208.259505)"><path style="stroke:none" d="M 6.734375 0 L 5.265625 0 L 5.265625 -0.84375 C 4.765625 -0.238281 4 0.0625 2.96875 0.0625 C 2.476562 0.0625 2.046875 -0.03125 1.671875 -0.21875 C 1.304688 -0.40625 1.023438 -0.660156 0.828125 -0.984375 C 0.628906 -1.304688 0.53125 -1.671875 0.53125 -2.078125 C 0.53125 -2.710938 0.757812 -3.21875 1.21875 -3.59375 C 1.675781 -3.96875 2.320312 -4.160156 3.15625 -4.171875 L 5.25 -4.171875 L 5.25 -4.375 C 5.25 -4.8125 5.109375 -5.148438 4.828125 -5.390625 C 4.546875 -5.640625 4.132812 -5.765625 3.59375 -5.765625 C 2.925781 -5.765625 2.242188 -5.53125 1.546875 -5.0625 L 0.9375 -6.109375 C 1.46875 -6.421875 1.941406 -6.640625 2.359375 -6.765625 C 2.785156 -6.898438 3.304688 -6.96875 3.921875 -6.96875 C 4.804688 -6.96875 5.488281 -6.753906 5.96875 -6.328125 C 6.457031 -5.898438 6.707031 -5.304688 6.71875 -4.546875 Z M 3.28125 -1.125 C 3.8125 -1.125 4.257812 -1.242188 4.625 -1.484375 C 5 -1.734375 5.207031 -2.050781 5.25 -2.4375 L 5.25 -3.078125 L 3.375 -3.078125 C 2.875 -3.078125 2.507812 -3.003906 2.28125 -2.859375 C 2.050781 -2.710938 1.9375 -2.472656 1.9375 -2.140625 C 1.9375 -1.828125 2.054688 -1.578125 2.296875 -1.390625 C 2.535156 -1.210938 2.863281 -1.125 3.28125 -1.125 Z M 3.28125 -1.125 "/></g></g><g style="fill:#ffcf0d;fill-opacity:1;"><g transform="translate(219.491587, 208.259505)"><path style="stroke:none" d=""/></g></g><g style="fill:#ffcf0d;fill-opacity:1;"><g transform="translate(225.463543, 208.259505)"><path style="stroke:none" d="M 1.203125 0 L 1.203125 -9.109375 L 2.984375 -9.109375 L 6.125 -3.015625 L 9.25 -9.109375 L 11.03125 -9.109375 L 11.03125 0 L 9.625 0 L 9.609375 -6.828125 L 6.609375 -0.953125 L 5.640625 -0.953125 L 2.609375 -6.828125 L 2.609375 0 Z M 1.203125 0 "/></g></g><g style="fill:#ffcf0d;fill-opacity:1;"><g transform="translate(240.149249, 208.259505)"><path style="stroke:none" d="M 3.953125 -6.96875 C 5.046875 -6.96875 5.863281 -6.660156 6.40625 -6.046875 C 6.945312 -5.429688 7.21875 -4.566406 7.21875 -3.453125 C 7.21875 -3.335938 7.210938 -3.148438 7.203125 -2.890625 L 1.96875 -2.890625 C 2.082031 -2.347656 2.332031 -1.921875 2.71875 -1.609375 C 3.101562 -1.304688 3.566406 -1.15625 4.109375 -1.15625 C 4.484375 -1.15625 4.835938 -1.222656 5.171875 -1.359375 C 5.515625 -1.503906 5.8125 -1.707031 6.0625 -1.96875 L 6.859375 -1.125 C 6.515625 -0.75 6.097656 -0.457031 5.609375 -0.25 C 5.117188 -0.0507812 4.582031 0.046875 4 0.046875 C 3.289062 0.046875 2.671875 -0.0976562 2.140625 -0.390625 C 1.609375 -0.679688 1.191406 -1.09375 0.890625 -1.625 C 0.597656 -2.15625 0.453125 -2.765625 0.453125 -3.453125 C 0.453125 -4.140625 0.597656 -4.75 0.890625 -5.28125 C 1.191406 -5.8125 1.609375 -6.222656 2.140625 -6.515625 C 2.671875 -6.816406 3.273438 -6.96875 3.953125 -6.96875 Z M 5.890625 -3.984375 C 5.867188 -4.535156 5.679688 -4.972656 5.328125 -5.296875 C 4.984375 -5.617188 4.53125 -5.78125 3.96875 -5.78125 C 3.425781 -5.78125 2.972656 -5.617188 2.609375 -5.296875 C 2.242188 -4.972656 2.019531 -4.535156 1.9375 -3.984375 Z M 5.890625 -3.984375 "/></g></g><g style="fill:#ffcf0d;fill-opacity:1;"><g transform="translate(250.256988, 208.259505)"><path style="stroke:none" d="M 5.984375 -4.875 C 5.484375 -5.394531 4.84375 -5.65625 4.0625 -5.65625 C 3.445312 -5.65625 2.941406 -5.453125 2.546875 -5.046875 C 2.148438 -4.640625 1.953125 -4.109375 1.953125 -3.453125 C 1.953125 -2.796875 2.144531 -2.257812 2.53125 -1.84375 C 2.914062 -1.4375 3.410156 -1.234375 4.015625 -1.234375 C 4.898438 -1.234375 5.578125 -1.507812 6.046875 -2.0625 L 6.890625 -1.234375 C 6.578125 -0.816406 6.171875 -0.5 5.671875 -0.28125 C 5.171875 -0.0625 4.59375 0.046875 3.9375 0.046875 C 3.257812 0.046875 2.65625 -0.0976562 2.125 -0.390625 C 1.601562 -0.679688 1.191406 -1.09375 0.890625 -1.625 C 0.597656 -2.15625 0.453125 -2.765625 0.453125 -3.453125 C 0.453125 -4.140625 0.597656 -4.75 0.890625 -5.28125 C 1.191406 -5.820312 1.601562 -6.238281 2.125 -6.53125 C 2.65625 -6.820312 3.257812 -6.96875 3.9375 -6.96875 C 4.5625 -6.96875 5.113281 -6.867188 5.59375 -6.671875 C 6.082031 -6.484375 6.488281 -6.207031 6.8125 -5.84375 Z M 5.984375 -4.875 "/></g></g><g style="fill:#ffcf0d;fill-opacity:1;"><g transform="translate(260.052587, 208.259505)"><path style="stroke:none" d="M 6.734375 0 L 5.265625 0 L 5.265625 -0.84375 C 4.765625 -0.238281 4 0.0625 2.96875 0.0625 C 2.476562 0.0625 2.046875 -0.03125 1.671875 -0.21875 C 1.304688 -0.40625 1.023438 -0.660156 0.828125 -0.984375 C 0.628906 -1.304688 0.53125 -1.671875 0.53125 -2.078125 C 0.53125 -2.710938 0.757812 -3.21875 1.21875 -3.59375 C 1.675781 -3.96875 2.320312 -4.160156 3.15625 -4.171875 L 5.25 -4.171875 L 5.25 -4.375 C 5.25 -4.8125 5.109375 -5.148438 4.828125 -5.390625 C 4.546875 -5.640625 4.132812 -5.765625 3.59375 -5.765625 C 2.925781 -5.765625 2.242188 -5.53125 1.546875 -5.0625 L 0.9375 -6.109375 C 1.46875 -6.421875 1.941406 -6.640625 2.359375 -6.765625 C 2.785156 -6.898438 3.304688 -6.96875 3.921875 -6.96875 C 4.804688 -6.96875 5.488281 -6.753906 5.96875 -6.328125 C 6.457031 -5.898438 6.707031 -5.304688 6.71875 -4.546875 Z M 3.28125 -1.125 C 3.8125 -1.125 4.257812 -1.242188 4.625 -1.484375 C 5 -1.734375 5.207031 -2.050781 5.25 -2.4375 L 5.25 -3.078125 L 3.375 -3.078125 C 2.875 -3.078125 2.507812 -3.003906 2.28125 -2.859375 C 2.050781 -2.710938 1.9375 -2.472656 1.9375 -2.140625 C 1.9375 -1.828125 2.054688 -1.578125 2.296875 -1.390625 C 2.535156 -1.210938 2.863281 -1.125 3.28125 -1.125 Z M 4.53125 -9.8125 L 5.921875 -7.984375 L 4.453125 -7.984375 L 3.765625 -8.796875 L 3.078125 -7.984375 L 1.625 -7.984375 L 3.015625 -9.8125 Z M 4.53125 -9.8125 "/></g></g><g style="fill:#ffcf0d;fill-opacity:1;"><g transform="translate(270.134307, 208.259505)"><path style="stroke:none" d="M 5.15625 -6.96875 C 5.957031 -6.96875 6.585938 -6.734375 7.046875 -6.265625 C 7.503906 -5.796875 7.734375 -5.144531 7.734375 -4.3125 L 7.734375 0 L 6.234375 0 L 6.234375 -3.890625 C 6.234375 -4.410156 6.082031 -4.820312 5.78125 -5.125 C 5.488281 -5.425781 5.082031 -5.578125 4.5625 -5.578125 C 4.007812 -5.566406 3.554688 -5.382812 3.203125 -5.03125 C 2.859375 -4.6875 2.660156 -4.238281 2.609375 -3.6875 L 2.609375 0 L 1.109375 0 L 1.109375 -6.921875 L 2.609375 -6.921875 L 2.609375 -5.59375 C 3.078125 -6.507812 3.925781 -6.96875 5.15625 -6.96875 Z M 5.15625 -6.96875 "/></g></g><g style="fill:#ffcf0d;fill-opacity:1;"><g transform="translate(281.21746, 208.259505)"><path style="stroke:none" d="M 1.109375 0 L 1.109375 -6.921875 L 2.59375 -6.921875 L 2.59375 0 Z M 1.859375 -9.8125 C 2.109375 -9.8125 2.3125 -9.726562 2.46875 -9.5625 C 2.632812 -9.394531 2.71875 -9.175781 2.71875 -8.90625 C 2.71875 -8.644531 2.632812 -8.425781 2.46875 -8.25 C 2.3125 -8.070312 2.109375 -7.984375 1.859375 -7.984375 C 1.597656 -7.984375 1.382812 -8.070312 1.21875 -8.25 C 1.0625 -8.425781 0.984375 -8.644531 0.984375 -8.90625 C 0.984375 -9.175781 1.0625 -9.394531 1.21875 -9.5625 C 1.382812 -9.726562 1.597656 -9.8125 1.859375 -9.8125 Z M 1.859375 -9.8125 "/></g></g><g style="fill:#ffcf0d;fill-opacity:1;"><g transform="translate(287.371495, 208.259505)"><path style="stroke:none" d="M 5.984375 -4.875 C 5.484375 -5.394531 4.84375 -5.65625 4.0625 -5.65625 C 3.445312 -5.65625 2.941406 -5.453125 2.546875 -5.046875 C 2.148438 -4.640625 1.953125 -4.109375 1.953125 -3.453125 C 1.953125 -2.796875 2.144531 -2.257812 2.53125 -1.84375 C 2.914062 -1.4375 3.410156 -1.234375 4.015625 -1.234375 C 4.898438 -1.234375 5.578125 -1.507812 6.046875 -2.0625 L 6.890625 -1.234375 C 6.578125 -0.816406 6.171875 -0.5 5.671875 -0.28125 C 5.171875 -0.0625 4.59375 0.046875 3.9375 0.046875 C 3.257812 0.046875 2.65625 -0.0976562 2.125 -0.390625 C 1.601562 -0.679688 1.191406 -1.09375 0.890625 -1.625 C 0.597656 -2.15625 0.453125 -2.765625 0.453125 -3.453125 C 0.453125 -4.140625 0.597656 -4.75 0.890625 -5.28125 C 1.191406 -5.820312 1.601562 -6.238281 2.125 -6.53125 C 2.65625 -6.820312 3.257812 -6.96875 3.9375 -6.96875 C 4.5625 -6.96875 5.113281 -6.867188 5.59375 -6.671875 C 6.082031 -6.484375 6.488281 -6.207031 6.8125 -5.84375 Z M 5.984375 -4.875 "/></g></g><g style="fill:#ffcf0d;fill-opacity:1;"><g transform="translate(297.167093, 208.259505)"><path style="stroke:none" d="M 6.734375 0 L 5.265625 0 L 5.265625 -0.84375 C 4.765625 -0.238281 4 0.0625 2.96875 0.0625 C 2.476562 0.0625 2.046875 -0.03125 1.671875 -0.21875 C 1.304688 -0.40625 1.023438 -0.660156 0.828125 -0.984375 C 0.628906 -1.304688 0.53125 -1.671875 0.53125 -2.078125 C 0.53125 -2.710938 0.757812 -3.21875 1.21875 -3.59375 C 1.675781 -3.96875 2.320312 -4.160156 3.15625 -4.171875 L 5.25 -4.171875 L 5.25 -4.375 C 5.25 -4.8125 5.109375 -5.148438 4.828125 -5.390625 C 4.546875 -5.640625 4.132812 -5.765625 3.59375 -5.765625 C 2.925781 -5.765625 2.242188 -5.53125 1.546875 -5.0625 L 0.9375 -6.109375 C 1.46875 -6.421875 1.941406 -6.640625 2.359375 -6.765625 C 2.785156 -6.898438 3.304688 -6.96875 3.921875 -6.96875 C 4.804688 -6.96875 5.488281 -6.753906 5.96875 -6.328125 C 6.457031 -5.898438 6.707031 -5.304688 6.71875 -4.546875 Z M 3.28125 -1.125 C 3.8125 -1.125 4.257812 -1.242188 4.625 -1.484375 C 5 -1.734375 5.207031 -2.050781 5.25 -2.4375 L 5.25 -3.078125 L 3.375 -3.078125 C 2.875 -3.078125 2.507812 -3.003906 2.28125 -2.859375 C 2.050781 -2.710938 1.9375 -2.472656 1.9375 -2.140625 C 1.9375 -1.828125 2.054688 -1.578125 2.296875 -1.390625 C 2.535156 -1.210938 2.863281 -1.125 3.28125 -1.125 Z M 3.28125 -1.125 "/></g></g></g></svg>